<svg width="360" height="90" viewBox="0 0 360 90" fill="none" xmlns="http://www.w3.org/2000/svg">
<path fill-rule="evenodd" clip-rule="evenodd" d="M303.26 90H305.14V81.32H305.17L308.29 90H309.91L313.03 81.32H313.06V90H314.94V78.75H312.2L309.18 87.55H309.15L306.05 78.75H303.28V90H303.26ZM292.88 80.45H296.44V90H298.41V80.45H301.99V78.75H292.89V80.45H292.88ZM270 90L360 0H305.83L215.84 90H270ZM257.09 39.19H148.15C114.95 39.19 109.14 40.95 94.91 55.17C81.61 68.48 60 90 60 90H107.19L118.45 78.74C125.85 71.34 129.67 70.57 145.21 70.57H225.71L257.09 39.19ZM93.46 48.76C83.64 58.03 62.26 78.79 50.74 90H0C0 90 40.65 49.46 63.25 27.22C86.53 5.06 98.14 0.00999451 140.84 0.00999451H296.28L262.62 33.67H144.01C114 33.66 107.26 35.74 93.46 48.76Z" fill="#E10600"/>
</svg>
